<?xml version="1.0" standalone="no"?>
<!DOCTYPE svg PUBLIC "-//W3C//DTD SVG 20010904//EN"
 "http://www.w3.org/TR/2001/REC-SVG-20010904/DTD/svg10.dtd">
<svg version="1.0" xmlns="http://www.w3.org/2000/svg"
 width="480.000000pt" height="480.000000pt" viewBox="0 0 480.000000 480.000000"
 preserveAspectRatio="xMidYMid meet">

<g transform="translate(0.000000,480.000000) scale(0.100000,-0.100000)"
fill="#93C5FD" stroke="none">
<path d="M2230 4794 c-19 -2 -78 -9 -130 -15 -571 -65 -1152 -378 -1522 -819
-310 -369 -494 -784 -559 -1260 -20 -138 -17 -487 4 -631 105 -714 508 -1332
1112 -1707 106 -65 338 -179 445 -217 119 -43 198 -21 218 59 4 17 6 132 4
255 l-3 223 -32 -6 c-18 -4 -100 -9 -183 -12 -233 -10 -358 25 -475 133 -48
45 -68 76 -123 186 -74 149 -150 256 -216 304 -96 70 -130 104 -130 128 0 34
27 45 112 45 60 0 84 -5 136 -30 80 -38 165 -119 237 -226 87 -129 176 -197
298 -230 98 -26 244 -13 354 31 36 14 39 19 50 75 14 75 54 161 99 216 l35 43
-38 6 c-21 3 -87 15 -148 27 -532 100 -820 399 -885 920 -18 145 -8 402 19
498 30 103 101 243 161 318 l50 62 -22 78 c-39 138 -26 358 29 508 l19 49 57
3 c116 6 330 -74 523 -196 l82 -51 73 19 c171 44 274 55 529 55 210 -1 263 -4
373 -23 71 -13 149 -30 175 -37 l46 -14 80 51 c186 119 393 198 521 198 l62 0
22 -65 c55 -168 63 -349 23 -503 l-19 -74 36 -43 c83 -101 158 -258 187 -390
12 -55 17 -126 17 -230 1 -572 -232 -932 -700 -1084 -76 -24 -212 -55 -345
-76 l-37 -6 36 -47 c20 -26 47 -70 60 -99 48 -103 53 -159 53 -581 0 -432 2
-447 59 -476 46 -24 90 -19 193 19 150 58 326 149 469 244 580 385 949 969
1056 1671 21 141 24 489 5 630 -95 694 -461 1289 -1032 1682 -298 205 -645
340 -1015 394 -97 14 -435 26 -505 18z"/>
</g>
</svg>
